<?xml version="1.0" standalone="no"?>
<!DOCTYPE svg PUBLIC "-//W3C//DTD SVG 20010904//EN"
 "http://www.w3.org/TR/2001/REC-SVG-20010904/DTD/svg10.dtd">
<svg version="1.0" xmlns="http://www.w3.org/2000/svg"
 width="512.000000pt" height="512.000000pt" viewBox="0 0 512.000000 512.000000"
 preserveAspectRatio="xMidYMid meet">
<metadata>
Created by potrace 1.14, written by Peter Selinger 2001-2017
</metadata>
<g transform="translate(0.000000,512.000000) scale(0.100000,-0.100000)"
fill="#000000" stroke="none">
<path d="M4455 5106 c-16 -7 -76 -47 -132 -87 -174 -126 -1192 -853 -1216
-869 -208 -137 -253 -199 -216 -297 6 -15 87 -105 180 -198 l169 -170 -138
-138 -138 -138 -270 269 c-295 295 -336 330 -421 362 -81 31 -212 36 -292 11
l-59 -18 -216 216 c-119 119 -216 220 -216 225 0 5 25 33 55 64 72 71 88 103
83 163 -10 102 -112 162 -205 119 -23 -11 -121 -101 -250 -231 -117 -118 -314
-315 -439 -439 -124 -124 -230 -236 -236 -250 -17 -44 -16 -87 3 -129 23 -53
69 -81 133 -81 57 0 93 19 152 83 23 25 47 48 53 51 6 4 100 -82 226 -207
l215 -215 -21 -58 c-40 -114 -25 -255 39 -372 30 -56 591 -624 607 -615 5 3
-53 -58 -130 -136 l-140 -141 -170 170 c-93 93 -183 174 -198 180 -58 21 -120
9 -160 -32 -32 -32 -1094 -1525 -1099 -1546 -10 -37 0 -101 20 -129 11 -16
123 -130 249 -254 170 -169 236 -228 259 -232 63 -12 105 8 271 128 117 85
758 542 770 550 9 6 24 16 32 22 9 7 137 99 285 205 148 106 279 205 290 220
20 28 29 90 18 131 -3 12 -84 101 -179 199 l-175 176 134 135 134 135 79 -75
c114 -108 162 -132 305 -157 14 -3 36 -5 48 -5 22 -1 23 -4 17 -40 -31 -182 7
-424 94 -601 66 -135 180 -283 242 -316 47 -24 110 -18 155 15 21 16 154 144
294 285 l255 256 85 -85 c110 -108 146 -123 230 -89 70 28 105 119 74 193 -8
20 -51 73 -95 117 l-81 81 266 266 c146 146 275 281 286 299 39 64 21 138 -51
202 -236 211 -518 303 -834 272 l-70 -6 -2 51 c-5 120 -53 216 -166 332 l-67
67 135 137 136 136 177 -176 c145 -143 184 -176 213 -182 47 -9 110 9 137 38
12 13 105 140 207 283 102 142 191 268 199 279 8 11 98 137 201 280 224 314
187 262 346 485 73 102 138 199 144 215 16 40 11 88 -14 128 -11 17 -122 134
-248 258 -204 202 -232 227 -268 232 -52 9 -55 9 -90 -7z"/>
<path d="M4300 1182 c-40 -22 -80 -84 -80 -125 0 -70 -60 -141 -128 -152 -82
-13 -112 -26 -138 -61 -35 -45 -42 -115 -17 -163 29 -56 65 -76 140 -78 223
-6 419 178 438 412 9 108 -35 169 -132 180 -36 5 -57 1 -83 -13z"/>
<path d="M4920 1192 c-70 -32 -96 -79 -105 -193 -9 -120 -23 -174 -71 -275
-89 -188 -273 -340 -474 -394 -63 -17 -69 -18 -157 -25 -137 -11 -188 -53
-188 -155 0 -68 21 -104 76 -133 63 -34 262 -13 424 45 319 114 589 415 663
738 20 86 23 101 28 190 5 81 3 94 -18 131 -35 62 -121 96 -178 71z"/>
</g>
</svg>
